<svg width="512" height="512" viewBox="0 0 512 512" fill="none" xmlns="http://www.w3.org/2000/svg">
<rect x="4" y="4" width="504" height="504" rx="60" fill="black" stroke="#27272A" stroke-width="8"/>
<path d="M249.584 222.32C249.584 236.059 246.64 247.408 240.752 256.368C234.864 265.328 226.629 272.027 216.048 276.464C205.467 280.816 193.179 282.992 179.184 282.992H159.984V342H118V164.592H173.808C197.872 164.592 216.517 169.371 229.744 178.928C242.971 188.485 249.584 202.949 249.584 222.32ZM206.32 222.448C206.32 203.845 195.653 194.544 174.32 194.544H159.984V252.528H176.496C185.883 252.528 193.179 250.139 198.384 245.36C203.675 240.496 206.32 232.859 206.32 222.448Z" fill="#E4E4E7"/>
<path d="M401.932 206.064L356.62 342C350.647 360.005 341.601 373.701 329.484 383.088C317.452 392.475 301.111 397.765 280.46 398.96L275.852 370.416C284.812 369.307 292.023 367.643 297.484 365.424C303.031 363.205 307.468 360.176 310.796 356.336C314.209 352.581 317.153 347.803 319.628 342H305.804L262.668 206.064H305.42L331.788 316.144L360.46 206.064H401.932Z" fill="#E4E4E7"/>
</svg>
